<svg xmlns="http://www.w3.org/2000/svg" viewBox="0 0 64 64">
  <defs>
    <linearGradient id="bgGrad" x1="0%" y1="0%" x2="100%" y2="100%">
      <stop offset="0%" style="stop-color:#6366f1"/>
      <stop offset="100%" style="stop-color:#8b5cf6"/>
    </linearGradient>
    <linearGradient id="checkGrad" x1="0%" y1="0%" x2="100%" y2="100%">
      <stop offset="0%" style="stop-color:#10b981"/>
      <stop offset="100%" style="stop-color:#34d399"/>
    </linearGradient>
  </defs>
  
  <!-- Background rounded square -->
  <rect x="4" y="4" width="56" height="56" rx="12" fill="url(#bgGrad)"/>
  
  <!-- Document/clipboard shape -->
  <rect x="16" y="12" width="32" height="40" rx="4" fill="white" opacity="0.95"/>
  
  <!-- Clipboard top -->
  <rect x="24" y="8" width="16" height="8" rx="2" fill="white"/>
  <rect x="27" y="10" width="10" height="4" rx="1" fill="#6366f1"/>
  
  <!-- Checklist lines -->
  <rect x="22" y="24" width="20" height="3" rx="1" fill="#e5e7eb"/>
  <rect x="22" y="32" width="16" height="3" rx="1" fill="#e5e7eb"/>
  <rect x="22" y="40" width="18" height="3" rx="1" fill="#e5e7eb"/>
  
  <!-- Checkmarks -->
  <circle cx="26" cy="25.5" r="4" fill="url(#checkGrad)"/>
  <path d="M24 25.5 L25.5 27 L28.5 24" stroke="white" stroke-width="1.5" fill="none" stroke-linecap="round" stroke-linejoin="round"/>
  
  <circle cx="26" cy="33.5" r="4" fill="url(#checkGrad)"/>
  <path d="M24 33.5 L25.5 35 L28.5 32" stroke="white" stroke-width="1.5" fill="none" stroke-linecap="round" stroke-linejoin="round"/>
  
  <!-- Pending circle -->
  <circle cx="26" cy="41.5" r="4" fill="#fbbf24" opacity="0.8"/>
</svg>




